inDegrees=yes
name=ik_lifting_orientations
DataType=double
version=3
OpenSimVersion=4.5-2024-01-10-34fd6af
endheader
time	pelvis_tilt	pelvis_list	pelvis_rotation	pelvis_tx	pelvis_ty	pelvis_tz	hip_flexion_r	hip_adduction_r	hip_rotation_r	knee_angle_r	knee_angle_r_beta	ankle_angle_r	subtalar_angle_r	mtp_angle_r	hip_flexion_l	hip_adduction_l	hip_rotation_l	knee_angle_l	knee_angle_l_beta	ankle_angle_l	subtalar_angle_l	mtp_angle_l	lumbar_extension	lumbar_bending	lumbar_rotation	arm_flex_r	arm_add_r	arm_rot_r	elbow_flex_r	pro_sup_r	wrist_flex_r	wrist_dev_r	arm_flex_l	arm_add_l	arm_rot_l	elbow_flex_l	pro_sup_l	wrist_flex_l	wrist_dev_l
0.02	0.001121753002117834	-0.00241796361283182	-100.525876471757	0	0.9399999998679526	0	15.33332197999939	-7.100290808030658	0	22.81325251199987	0.398166369423265	-4.095477823572009	0	0	15.33332197999939	-7.100290808030658	0	22.81325251199987	0.398166369423265	-4.095477823572009	0	0	0.004951304564716724	-6.265847375345601e-06	0.0005401298856647894	-0.2492128069730961	-0.05822967136447728	0.001887061350408977	0.4997931685620157	57.95227962809216	0	0	0	-2.2844511662223	0	32.21614999219091	57.95227962809216	0	0
0.03	-1.145310945386145	-1.174371995278532	-101.2344869111095	0	0.9399999998679526	0	15.64685704373953	-7.168387628148698	0	23.26783947062665	0.4061004085879294	-4.120726328988466	0	0	15.64685704373953	-7.168387628148698	0	23.26783947062665	0.4061004085879294	-4.120726328988466	0	0	-2.013734874619422	1.290753098080701	-3.160010474951733	0.309262840482195	-0.4797574290295916	4.088544530974207	0.5828151080965425	57.40247481808074	0	0	0	-2.360711407976687	0	32.76348220184853	57.40247481808074	0	0
0.04	-1.979801506757942	-2.003978641403946	-101.7023554740998	0	0.9399999998679526	0	15.66110262495801	-7.172469742315582	0	23.28674566274904	0.4064303838894798	-4.122371301229529	0	0	15.66110262495801	-7.172469742315582	0	23.28674566274904	0.4064303838894798	-4.122371301229529	0	0	-3.685128795940519	2.373847596759997	-5.221747776530401	0.8776667620810499	-0.928917818545361	6.778120594641827	0.7086764735995146	57.37493560612944	0	0	0	-2.363421144910109	0	32.7908352302312	57.37493560612944	0	0
0.05	-2.633018449804216	-2.667009028964949	-102.1619856681245	0	0.9399999998679526	0	15.67155667121536	-7.175445427034822	0	23.30064588978398	0.4066729886180142	-4.123568129449771	0	0	15.67155667121536	-7.175445427034822	0	23.30064588978398	0.4066729886180142	-4.123568129449771	0	0	-5.218427133670309	3.352273299051597	-6.033912980069006	1.265442909149533	-1.465731734856198	8.332949986207097	1.084662876740854	57.35478020637028	0	0	0	-2.365423718239014	0	32.81085557212994	57.35478020637028	0	0
0.06	-3.429730499238024	-3.442028471050992	-102.7157265011047	0	0.9399999998679526	0	15.68267451724313	-7.178603217427585	0	23.31543288617411	0.4069310703915024	-4.124837341987897	0	0	15.68267451724313	-7.178603217427585	0	23.31543288617411	0.4069310703915024	-4.124837341987897	0	0	-6.922231660237537	4.441666625830949	-6.764604920724397	1.642062845567654	-2.063126113693218	9.993867390876606	1.474112247536781	57.3333657311657	0	0	0	-2.367558207987443	0	32.83212701032405	57.3333657311657	0	0
0.07000000000000001	-4.192468799258133	-4.227624597702353	-103.8158080898322	0	0.9399999998679526	0	15.72817160489056	-7.191574797807843	0	23.37572203321155	0.4079833145105248	-4.130051640872898	0	0	15.72817160489056	-7.191574797807843	0	23.37572203321155	0.4079833145105248	-4.130051640872898	0	0	-8.949488093751526	5.547899930612885	-6.189974922930673	2.297344432433574	-2.794777186155402	11.12774382278156	1.868711067844579	57.24562386521984	0	0	0	-2.37623423101761	0	32.91928060027023	57.24562386521984	0	0
0.08	-4.947189338469586	-4.972163633218393	-104.9050469623919	0	0.9399999998679526	0	15.78083355778888	-7.206569293280555	0	23.44535524282347	0.4091986432869842	-4.136072148733262	0	0	15.78083355778888	-7.206569293280555	0	23.44535524282347	0.4091986432869842	-4.136072148733262	0	0	-11.32094628575044	6.808427837302924	-5.759570290461867	3.294878449460298	-3.651508313613403	12.54652313481084	2.343547298755788	57.14416230872322	0	0	0	-2.386271440600487	0	33.02006416404545	57.14416230872322	0	0
0.09	-5.893327244202666	-5.877440091835417	-106.521220485649	0	0.9399999998679526	0	15.81921486064506	-7.217428436350884	0	23.49609668389107	0.4100842485008205	-4.140421683961869	0	0	15.81921486064506	-7.217428436350884	0	23.49609668389107	0.4100842485008205	-4.140421683961869	0	0	-14.07183634790477	8.05159148332338	-4.791710697047171	4.448688378715859	-4.520156616842303	14.08091842017349	2.734637977231308	57.07042344189507	0	0	0	-2.39362455006134	0	33.09331499548897	57.07042344189507	0	0
0.1	-3.714395771461835	-3.91272164583415	-104.9130906715588	0	0.9399999998679526	0	15.84674517999606	-7.225218932868214	0	23.53243447354278	0.4107184625731399	-4.143540836352407	0	0	15.84674517999606	-7.225218932868214	0	23.53243447354278	0.4107184625731399	-4.143540836352407	0	0	-12.04918898257593	7.307112906154293	-6.761847995824039	4.845742361895456	-4.927817866010269	15.08403982536061	2.968278279633239	57.01754281033594	0	0	0	-2.398892204184719	0	33.14584589922989	57.01754281033594	0	0
0.11	-1.558643390200663	-1.848781795836793	-103.3482399916057	0	0.9399999998679526	0	15.87126251716641	-7.232149733190862	0	23.5647662920559	0.4112827592593512	-4.146314122008169	0	0	15.87126251716641	-7.232149733190862	0	23.5647662920559	0.4112827592593512	-4.146314122008169	0	0	-10.65334283454526	6.956639860134146	-8.427877263465714	6.045175421368378	-5.660125302531982	15.84767858019362	3.196810927244071	56.97048090266593	0	0	0	-2.403585589794805	0	33.19259724948527	56.97048090266593	0	0
0.12	0.406124993534445	0.07206422469627226	-102.2910134374986	0	0.9399999998679526	0	15.89638132128449	-7.23924342817025	0	23.59786089845506	0.411860369105668	-4.149150909077427	0	0	15.89638132128449	-7.23924342817025	0	23.59786089845506	0.411860369105668	-4.149150909077427	0	0	-9.310685960297262	6.434496769454581	-9.483357200481201	7.274075956934531	-6.176174706332064	16.40455204974704	3.09828198945219	56.92229676971195	0	0	0	-2.40839647878283	0	33.24046412452496	56.92229676971195	0	0
0.13	4.76593992662784	6.354836831544439	-93.54381361151842	0	0.9399999998679526	0	15.94216789540207	-7.252116602449886	0	23.65812373832069	0.4129121540779253	-4.154288129244929	0	0	15.94216789540207	-7.252116602449886	0	23.65812373832069	0.4129121540779253	-4.154288129244929	0	0	-2.603443723227464	4.826140006694265	-18.60673581199221	8.517770181468348	-6.683279420665465	16.98780176628641	2.987797460986004	56.83463724738821	0	0	0	-2.417185664934747	0	33.32755041971598	56.83463724738821	0	0
